<svg height="18" viewBox="0 0 18 18" width="18" xmlns="http://www.w3.org/2000/svg"><path d="m17.19 17.14a10 10 0 0 0 -.19-1.34 7.31 7.31 0 0 0 -2.4-4.13 8 8 0 0 0 -2.55-1.53l-.19-.09.14-.05.39-.26a5.11 5.11 0 0 0 2.27-4.06 4.48 4.48 0 0 0 -.66-2.59 5.41 5.41 0 0 0 -2.38-2.31 6.22 6.22 0 0 0 -2-.54 5.84 5.84 0 0 0 -1.67 0 6.1 6.1 0 0 0 -2.39 1 5.09 5.09 0 0 0 -2.18 4 4.83 4.83 0 0 0 .53 2.56 5.41 5.41 0 0 0 2 2.07l.19.13v.05l-.15.06a8.11 8.11 0 0 0 -3.81 3 7.47 7.47 0 0 0 -1.29 4 .62.62 0 0 0 .75.63.61.61 0 0 0 .53-.67 5.6 5.6 0 0 1 .75-2.83 6.84 6.84 0 0 1 5.53-3.5 6.74 6.74 0 0 1 2.1.13 6.88 6.88 0 0 1 4.11 2.5 5.9 5.9 0 0 1 1.25 2.83c.05.33.06.67.09 1a.58.58 0 0 0 .64.54.62.62 0 0 0 .59-.6zm-7.92-7.58a4.35 4.35 0 0 1 -4.27-2.42 3.69 3.69 0 0 1 .47-4.09 4.29 4.29 0 0 1 3-1.65h.48a4.55 4.55 0 0 1 3.59 1.6 3.73 3.73 0 0 1 .85 2.16 3.9 3.9 0 0 1 -1.54 3.4 4.2 4.2 0 0 1 -2.58 1z" fill="#e0c55e"/><path d="m0 0h18v18h-18z" fill="none"/></svg>